<mxfile host="app.diagrams.net" modified="2024-03-19T20:33:19.068Z" agent="Mozilla/5.0 (Windows NT 10.0; Win64; x64) AppleWebKit/537.36 (KHTML, like Gecko) Chrome/122.0.0.0 Safari/537.36" etag="TkIwg_Fo9rlvI3h2E7K9" version="24.0.5" type="device">
  <diagram id="hiR-iVY9tcdxrmCfqkKU" name="Блок-схема алгоритма">
    <mxGraphModel dx="5600" dy="2390" grid="1" gridSize="10" guides="1" tooltips="1" connect="1" arrows="1" fold="1" page="1" pageScale="1" pageWidth="827" pageHeight="1169" math="0" shadow="0">
      <root>
        <mxCell id="0" />
        <mxCell id="1" parent="0" />
        <mxCell id="vWO0f-1AFC-SPm581ecY-13" style="edgeStyle=orthogonalEdgeStyle;rounded=0;orthogonalLoop=1;jettySize=auto;html=1;exitX=0.5;exitY=1;exitDx=0;exitDy=0;entryX=0.5;entryY=0;entryDx=0;entryDy=0;" edge="1" parent="1" source="OG82lMfCDCY6iOdtsJ8n-1" target="vWO0f-1AFC-SPm581ecY-2">
          <mxGeometry relative="1" as="geometry" />
        </mxCell>
        <mxCell id="OG82lMfCDCY6iOdtsJ8n-1" value="Начало" style="rounded=1;whiteSpace=wrap;html=1;" vertex="1" parent="1">
          <mxGeometry x="340" y="11" width="120" height="40" as="geometry" />
        </mxCell>
        <mxCell id="vWO0f-1AFC-SPm581ecY-15" style="edgeStyle=orthogonalEdgeStyle;rounded=0;orthogonalLoop=1;jettySize=auto;html=1;exitX=0.5;exitY=1;exitDx=0;exitDy=0;entryX=0.5;entryY=0;entryDx=0;entryDy=0;" edge="1" parent="1" source="OG82lMfCDCY6iOdtsJ8n-4" target="vWO0f-1AFC-SPm581ecY-9">
          <mxGeometry relative="1" as="geometry" />
        </mxCell>
        <mxCell id="OG82lMfCDCY6iOdtsJ8n-4" value="Исходный массив &lt;b&gt;array&lt;/b&gt;" style="shape=parallelogram;perimeter=parallelogramPerimeter;whiteSpace=wrap;html=1;fixedSize=1;" vertex="1" parent="1">
          <mxGeometry x="290" y="140" width="220" height="40" as="geometry" />
        </mxCell>
        <mxCell id="vWO0f-1AFC-SPm581ecY-14" style="edgeStyle=orthogonalEdgeStyle;rounded=0;orthogonalLoop=1;jettySize=auto;html=1;exitX=0.5;exitY=1;exitDx=0;exitDy=0;entryX=0.5;entryY=0;entryDx=0;entryDy=0;" edge="1" parent="1" source="vWO0f-1AFC-SPm581ecY-2" target="OG82lMfCDCY6iOdtsJ8n-4">
          <mxGeometry relative="1" as="geometry" />
        </mxCell>
        <mxCell id="vWO0f-1AFC-SPm581ecY-2" value="Максимальное количество символов в элементе массива &lt;b&gt;count &lt;/b&gt;= 3&amp;nbsp;" style="rounded=0;whiteSpace=wrap;html=1;" vertex="1" parent="1">
          <mxGeometry x="225" y="80" width="350" height="33" as="geometry" />
        </mxCell>
        <mxCell id="vWO0f-1AFC-SPm581ecY-18" style="edgeStyle=orthogonalEdgeStyle;rounded=0;orthogonalLoop=1;jettySize=auto;html=1;exitX=0.5;exitY=1;exitDx=0;exitDy=0;entryX=0.5;entryY=0;entryDx=0;entryDy=0;" edge="1" parent="1" source="vWO0f-1AFC-SPm581ecY-9" target="vWO0f-1AFC-SPm581ecY-16">
          <mxGeometry relative="1" as="geometry" />
        </mxCell>
        <mxCell id="vWO0f-1AFC-SPm581ecY-9" value="1, Длина исходного массива &lt;b&gt;len&lt;/b&gt;&lt;br&gt;2. Индекс элемента исходного массива&amp;nbsp;&lt;b&gt;inIndex &lt;/b&gt;= 0&lt;br&gt;3.&lt;span style=&quot;background-color: initial;&quot;&gt;&amp;nbsp;Количество элементов исходного массива, с длинной соответствующей count, &lt;b&gt;counter &lt;/b&gt;= 0&lt;/span&gt;" style="rounded=0;whiteSpace=wrap;html=1;" vertex="1" parent="1">
          <mxGeometry x="220" y="201" width="360" height="70" as="geometry" />
        </mxCell>
        <mxCell id="vWO0f-1AFC-SPm581ecY-20" style="edgeStyle=orthogonalEdgeStyle;rounded=0;orthogonalLoop=1;jettySize=auto;html=1;exitX=1;exitY=0.5;exitDx=0;exitDy=0;" edge="1" parent="1" source="vWO0f-1AFC-SPm581ecY-16">
          <mxGeometry relative="1" as="geometry">
            <mxPoint x="530" y="340" as="targetPoint" />
          </mxGeometry>
        </mxCell>
        <mxCell id="vWO0f-1AFC-SPm581ecY-21" value="&lt;font style=&quot;font-size: 14px;&quot;&gt;ДА&lt;/font&gt;" style="edgeLabel;html=1;align=center;verticalAlign=middle;resizable=0;points=[];" vertex="1" connectable="0" parent="vWO0f-1AFC-SPm581ecY-20">
          <mxGeometry x="-0.3" relative="1" as="geometry">
            <mxPoint as="offset" />
          </mxGeometry>
        </mxCell>
        <mxCell id="vWO0f-1AFC-SPm581ecY-48" style="edgeStyle=orthogonalEdgeStyle;rounded=0;orthogonalLoop=1;jettySize=auto;html=1;exitX=0;exitY=0.5;exitDx=0;exitDy=0;entryX=0;entryY=0.5;entryDx=0;entryDy=0;" edge="1" parent="1" source="vWO0f-1AFC-SPm581ecY-16" target="vWO0f-1AFC-SPm581ecY-38">
          <mxGeometry relative="1" as="geometry">
            <Array as="points">
              <mxPoint x="240" y="340" />
              <mxPoint x="240" y="801" />
            </Array>
          </mxGeometry>
        </mxCell>
        <mxCell id="vWO0f-1AFC-SPm581ecY-49" value="&lt;font style=&quot;font-size: 14px;&quot;&gt;НЕТ&lt;/font&gt;" style="edgeLabel;html=1;align=center;verticalAlign=middle;resizable=0;points=[];" vertex="1" connectable="0" parent="vWO0f-1AFC-SPm581ecY-48">
          <mxGeometry x="-0.1912" y="3" relative="1" as="geometry">
            <mxPoint y="-1" as="offset" />
          </mxGeometry>
        </mxCell>
        <mxCell id="vWO0f-1AFC-SPm581ecY-16" value="&lt;b&gt;inIndex &lt;/b&gt;&amp;lt;&amp;nbsp;&lt;b&gt;len&lt;/b&gt;" style="rhombus;whiteSpace=wrap;html=1;" vertex="1" parent="1">
          <mxGeometry x="340" y="290" width="120" height="100" as="geometry" />
        </mxCell>
        <mxCell id="vWO0f-1AFC-SPm581ecY-32" style="edgeStyle=orthogonalEdgeStyle;rounded=0;orthogonalLoop=1;jettySize=auto;html=1;exitX=0;exitY=0.5;exitDx=0;exitDy=0;entryX=0.5;entryY=0;entryDx=0;entryDy=0;" edge="1" parent="1" source="vWO0f-1AFC-SPm581ecY-19" target="vWO0f-1AFC-SPm581ecY-24">
          <mxGeometry relative="1" as="geometry" />
        </mxCell>
        <mxCell id="vWO0f-1AFC-SPm581ecY-33" value="&lt;font style=&quot;font-size: 14px;&quot;&gt;ДА&lt;/font&gt;" style="edgeLabel;html=1;align=center;verticalAlign=middle;resizable=0;points=[];" vertex="1" connectable="0" parent="vWO0f-1AFC-SPm581ecY-32">
          <mxGeometry x="0.1" relative="1" as="geometry">
            <mxPoint as="offset" />
          </mxGeometry>
        </mxCell>
        <mxCell id="vWO0f-1AFC-SPm581ecY-35" style="edgeStyle=orthogonalEdgeStyle;rounded=0;orthogonalLoop=1;jettySize=auto;html=1;exitX=1;exitY=0.5;exitDx=0;exitDy=0;entryX=0.5;entryY=0;entryDx=0;entryDy=0;" edge="1" parent="1" source="vWO0f-1AFC-SPm581ecY-19" target="vWO0f-1AFC-SPm581ecY-34">
          <mxGeometry relative="1" as="geometry" />
        </mxCell>
        <mxCell id="vWO0f-1AFC-SPm581ecY-36" value="&lt;font style=&quot;font-size: 14px;&quot;&gt;НЕТ&lt;/font&gt;" style="edgeLabel;html=1;align=center;verticalAlign=middle;resizable=0;points=[];" vertex="1" connectable="0" parent="vWO0f-1AFC-SPm581ecY-35">
          <mxGeometry x="0.0571" relative="1" as="geometry">
            <mxPoint as="offset" />
          </mxGeometry>
        </mxCell>
        <mxCell id="vWO0f-1AFC-SPm581ecY-19" value="&lt;b&gt;elementLen&amp;nbsp;&lt;/b&gt;&amp;lt; &lt;b&gt;count&lt;/b&gt;" style="rhombus;whiteSpace=wrap;html=1;" vertex="1" parent="1">
          <mxGeometry x="640" y="412" width="130" height="80" as="geometry" />
        </mxCell>
        <mxCell id="vWO0f-1AFC-SPm581ecY-23" style="edgeStyle=orthogonalEdgeStyle;rounded=0;orthogonalLoop=1;jettySize=auto;html=1;exitX=0.5;exitY=1;exitDx=0;exitDy=0;" edge="1" parent="1" source="vWO0f-1AFC-SPm581ecY-22" target="vWO0f-1AFC-SPm581ecY-19">
          <mxGeometry relative="1" as="geometry" />
        </mxCell>
        <mxCell id="vWO0f-1AFC-SPm581ecY-22" value="Для элемента &lt;b&gt;array &lt;/b&gt;с индексом &lt;b&gt;inIndex&amp;nbsp;&lt;/b&gt;рассчитать его длину &lt;b&gt;elementLen&lt;/b&gt;" style="rounded=0;whiteSpace=wrap;html=1;" vertex="1" parent="1">
          <mxGeometry x="530" y="320" width="350" height="40" as="geometry" />
        </mxCell>
        <mxCell id="vWO0f-1AFC-SPm581ecY-31" style="edgeStyle=orthogonalEdgeStyle;rounded=0;orthogonalLoop=1;jettySize=auto;html=1;exitX=0;exitY=0.5;exitDx=0;exitDy=0;entryX=0.5;entryY=1;entryDx=0;entryDy=0;" edge="1" parent="1" source="vWO0f-1AFC-SPm581ecY-24" target="vWO0f-1AFC-SPm581ecY-16">
          <mxGeometry relative="1" as="geometry" />
        </mxCell>
        <mxCell id="vWO0f-1AFC-SPm581ecY-24" value="&lt;b&gt;counter&amp;nbsp;&lt;/b&gt;= count + 1&lt;br&gt;&lt;b&gt;inIndex&amp;nbsp; =&amp;nbsp;&lt;/b&gt;inIndex&amp;nbsp;+ 1" style="rounded=0;whiteSpace=wrap;html=1;" vertex="1" parent="1">
          <mxGeometry x="496" y="525" width="140" height="40" as="geometry" />
        </mxCell>
        <mxCell id="vWO0f-1AFC-SPm581ecY-37" style="edgeStyle=orthogonalEdgeStyle;rounded=0;orthogonalLoop=1;jettySize=auto;html=1;entryX=0.5;entryY=1;entryDx=0;entryDy=0;" edge="1" parent="1" source="vWO0f-1AFC-SPm581ecY-34" target="vWO0f-1AFC-SPm581ecY-16">
          <mxGeometry relative="1" as="geometry" />
        </mxCell>
        <mxCell id="vWO0f-1AFC-SPm581ecY-34" value="&lt;b&gt;inIndex&amp;nbsp; =&amp;nbsp;&lt;/b&gt;inIndex&amp;nbsp;+ 1" style="rounded=0;whiteSpace=wrap;html=1;" vertex="1" parent="1">
          <mxGeometry x="805" y="596" width="130" height="30" as="geometry" />
        </mxCell>
        <mxCell id="vWO0f-1AFC-SPm581ecY-47" style="edgeStyle=orthogonalEdgeStyle;rounded=0;orthogonalLoop=1;jettySize=auto;html=1;exitX=1;exitY=0.5;exitDx=0;exitDy=0;" edge="1" parent="1" source="vWO0f-1AFC-SPm581ecY-38" target="vWO0f-1AFC-SPm581ecY-41">
          <mxGeometry relative="1" as="geometry" />
        </mxCell>
        <mxCell id="vWO0f-1AFC-SPm581ecY-51" value="&lt;font style=&quot;font-size: 14px;&quot;&gt;ДА&lt;/font&gt;" style="edgeLabel;html=1;align=center;verticalAlign=middle;resizable=0;points=[];" vertex="1" connectable="0" parent="vWO0f-1AFC-SPm581ecY-47">
          <mxGeometry x="-0.1867" y="1" relative="1" as="geometry">
            <mxPoint x="-1" as="offset" />
          </mxGeometry>
        </mxCell>
        <mxCell id="vWO0f-1AFC-SPm581ecY-52" style="edgeStyle=orthogonalEdgeStyle;rounded=0;orthogonalLoop=1;jettySize=auto;html=1;exitX=0.5;exitY=1;exitDx=0;exitDy=0;entryX=0.5;entryY=0;entryDx=0;entryDy=0;" edge="1" parent="1" source="vWO0f-1AFC-SPm581ecY-38" target="vWO0f-1AFC-SPm581ecY-46">
          <mxGeometry relative="1" as="geometry" />
        </mxCell>
        <mxCell id="vWO0f-1AFC-SPm581ecY-38" value="&lt;b&gt;counter&amp;nbsp;&lt;/b&gt;= 0" style="rhombus;whiteSpace=wrap;html=1;" vertex="1" parent="1">
          <mxGeometry x="339" y="751" width="120" height="100" as="geometry" />
        </mxCell>
        <mxCell id="vWO0f-1AFC-SPm581ecY-70" style="edgeStyle=orthogonalEdgeStyle;rounded=0;orthogonalLoop=1;jettySize=auto;html=1;exitX=1;exitY=0.5;exitDx=0;exitDy=0;entryX=1;entryY=0.5;entryDx=0;entryDy=0;" edge="1" parent="1" target="vWO0f-1AFC-SPm581ecY-42">
          <mxGeometry relative="1" as="geometry">
            <mxPoint x="831" y="800" as="sourcePoint" />
            <mxPoint x="515" y="1530" as="targetPoint" />
            <Array as="points">
              <mxPoint x="938" y="800" />
              <mxPoint x="938" y="1530" />
            </Array>
          </mxGeometry>
        </mxCell>
        <mxCell id="vWO0f-1AFC-SPm581ecY-41" value="Создать пустой результирующий массив строк&amp;nbsp;&lt;b&gt;outArray&lt;/b&gt;" style="rounded=0;whiteSpace=wrap;html=1;" vertex="1" parent="1">
          <mxGeometry x="633" y="770" width="220" height="60" as="geometry" />
        </mxCell>
        <mxCell id="vWO0f-1AFC-SPm581ecY-75" style="edgeStyle=orthogonalEdgeStyle;rounded=0;orthogonalLoop=1;jettySize=auto;html=1;entryX=0.5;entryY=0;entryDx=0;entryDy=0;" edge="1" parent="1" source="vWO0f-1AFC-SPm581ecY-42" target="vWO0f-1AFC-SPm581ecY-73">
          <mxGeometry relative="1" as="geometry">
            <mxPoint x="427" y="1590" as="targetPoint" />
          </mxGeometry>
        </mxCell>
        <mxCell id="vWO0f-1AFC-SPm581ecY-42" value="Результирующий массив строк&amp;nbsp;&lt;b&gt;outArray&lt;/b&gt;" style="shape=document;whiteSpace=wrap;html=1;boundedLbl=1;" vertex="1" parent="1">
          <mxGeometry x="317" y="1490" width="220" height="80" as="geometry" />
        </mxCell>
        <mxCell id="vWO0f-1AFC-SPm581ecY-60" style="edgeStyle=orthogonalEdgeStyle;rounded=0;orthogonalLoop=1;jettySize=auto;html=1;exitX=0.5;exitY=1;exitDx=0;exitDy=0;entryX=0.5;entryY=0;entryDx=0;entryDy=0;" edge="1" parent="1" source="vWO0f-1AFC-SPm581ecY-46" target="vWO0f-1AFC-SPm581ecY-55">
          <mxGeometry relative="1" as="geometry" />
        </mxCell>
        <mxCell id="vWO0f-1AFC-SPm581ecY-46" value="1. Индекс элемента исходного массива&amp;nbsp;&lt;b&gt;inIndex &lt;/b&gt;= 0&lt;br&gt;2. Результирующий массив&amp;nbsp;&lt;b&gt;outArray &lt;/b&gt;с длинной&amp;nbsp;&lt;b&gt;counter&amp;nbsp;&lt;/b&gt;&amp;nbsp;&lt;br&gt;&lt;div&gt;3. Индекс элемента результирующего массива &lt;b&gt;outIndex&lt;/b&gt;= 0&lt;br&gt;&lt;/div&gt;" style="rounded=0;whiteSpace=wrap;html=1;" vertex="1" parent="1">
          <mxGeometry x="220" y="885" width="360" height="65" as="geometry" />
        </mxCell>
        <mxCell id="vWO0f-1AFC-SPm581ecY-61" style="edgeStyle=orthogonalEdgeStyle;rounded=0;orthogonalLoop=1;jettySize=auto;html=1;exitX=1;exitY=0.5;exitDx=0;exitDy=0;" edge="1" parent="1" source="vWO0f-1AFC-SPm581ecY-55" target="vWO0f-1AFC-SPm581ecY-56">
          <mxGeometry relative="1" as="geometry" />
        </mxCell>
        <mxCell id="vWO0f-1AFC-SPm581ecY-62" value="&lt;font style=&quot;font-size: 14px;&quot;&gt;ДА&lt;/font&gt;" style="edgeLabel;html=1;align=center;verticalAlign=middle;resizable=0;points=[];" vertex="1" connectable="0" parent="vWO0f-1AFC-SPm581ecY-61">
          <mxGeometry x="-0.0689" relative="1" as="geometry">
            <mxPoint as="offset" />
          </mxGeometry>
        </mxCell>
        <mxCell id="vWO0f-1AFC-SPm581ecY-71" style="edgeStyle=orthogonalEdgeStyle;rounded=0;orthogonalLoop=1;jettySize=auto;html=1;exitX=0;exitY=0.5;exitDx=0;exitDy=0;entryX=0;entryY=0.5;entryDx=0;entryDy=0;" edge="1" parent="1" source="vWO0f-1AFC-SPm581ecY-55" target="vWO0f-1AFC-SPm581ecY-42">
          <mxGeometry relative="1" as="geometry">
            <Array as="points">
              <mxPoint x="240" y="1038" />
              <mxPoint x="240" y="1530" />
            </Array>
          </mxGeometry>
        </mxCell>
        <mxCell id="vWO0f-1AFC-SPm581ecY-72" value="&lt;font style=&quot;font-size: 14px;&quot;&gt;НЕТ&lt;/font&gt;" style="edgeLabel;html=1;align=center;verticalAlign=middle;resizable=0;points=[];" vertex="1" connectable="0" parent="vWO0f-1AFC-SPm581ecY-71">
          <mxGeometry x="-0.0809" y="-3" relative="1" as="geometry">
            <mxPoint y="-1" as="offset" />
          </mxGeometry>
        </mxCell>
        <mxCell id="vWO0f-1AFC-SPm581ecY-55" value="&lt;b&gt;inIndex &lt;/b&gt;&amp;lt;&amp;nbsp;&lt;b&gt;len&lt;/b&gt;" style="rhombus;whiteSpace=wrap;html=1;" vertex="1" parent="1">
          <mxGeometry x="340" y="988" width="120" height="100" as="geometry" />
        </mxCell>
        <mxCell id="vWO0f-1AFC-SPm581ecY-63" style="edgeStyle=orthogonalEdgeStyle;rounded=0;orthogonalLoop=1;jettySize=auto;html=1;exitX=0.5;exitY=1;exitDx=0;exitDy=0;" edge="1" parent="1" source="vWO0f-1AFC-SPm581ecY-56" target="vWO0f-1AFC-SPm581ecY-57">
          <mxGeometry relative="1" as="geometry" />
        </mxCell>
        <mxCell id="vWO0f-1AFC-SPm581ecY-56" value="Для элемента &lt;b&gt;array &lt;/b&gt;с индексом &lt;b&gt;inIndex&amp;nbsp;&lt;/b&gt;рассчитать его длину &lt;b&gt;elementLen&lt;/b&gt;" style="rounded=0;whiteSpace=wrap;html=1;" vertex="1" parent="1">
          <mxGeometry x="530" y="1020" width="350" height="40" as="geometry" />
        </mxCell>
        <mxCell id="vWO0f-1AFC-SPm581ecY-64" style="edgeStyle=orthogonalEdgeStyle;rounded=0;orthogonalLoop=1;jettySize=auto;html=1;exitX=0;exitY=0.5;exitDx=0;exitDy=0;entryX=0.5;entryY=0;entryDx=0;entryDy=0;" edge="1" parent="1" source="vWO0f-1AFC-SPm581ecY-57" target="vWO0f-1AFC-SPm581ecY-58">
          <mxGeometry relative="1" as="geometry" />
        </mxCell>
        <mxCell id="vWO0f-1AFC-SPm581ecY-65" value="&lt;font style=&quot;font-size: 14px;&quot;&gt;ДА&lt;/font&gt;" style="edgeLabel;html=1;align=center;verticalAlign=middle;resizable=0;points=[];" vertex="1" connectable="0" parent="vWO0f-1AFC-SPm581ecY-64">
          <mxGeometry x="-0.2909" y="1" relative="1" as="geometry">
            <mxPoint as="offset" />
          </mxGeometry>
        </mxCell>
        <mxCell id="vWO0f-1AFC-SPm581ecY-66" style="edgeStyle=orthogonalEdgeStyle;rounded=0;orthogonalLoop=1;jettySize=auto;html=1;exitX=1;exitY=0.5;exitDx=0;exitDy=0;entryX=0.5;entryY=0;entryDx=0;entryDy=0;" edge="1" parent="1" source="vWO0f-1AFC-SPm581ecY-57" target="vWO0f-1AFC-SPm581ecY-59">
          <mxGeometry relative="1" as="geometry" />
        </mxCell>
        <mxCell id="vWO0f-1AFC-SPm581ecY-67" value="&lt;font style=&quot;font-size: 14px;&quot;&gt;НЕТ&lt;/font&gt;" style="edgeLabel;html=1;align=center;verticalAlign=middle;resizable=0;points=[];" vertex="1" connectable="0" parent="vWO0f-1AFC-SPm581ecY-66">
          <mxGeometry x="0.0643" y="-3" relative="1" as="geometry">
            <mxPoint as="offset" />
          </mxGeometry>
        </mxCell>
        <mxCell id="vWO0f-1AFC-SPm581ecY-57" value="&lt;b&gt;elementLen&amp;nbsp;&lt;/b&gt;&amp;lt; &lt;b&gt;count&lt;/b&gt;" style="rhombus;whiteSpace=wrap;html=1;" vertex="1" parent="1">
          <mxGeometry x="640" y="1100" width="130" height="80" as="geometry" />
        </mxCell>
        <mxCell id="vWO0f-1AFC-SPm581ecY-68" style="edgeStyle=orthogonalEdgeStyle;rounded=0;orthogonalLoop=1;jettySize=auto;html=1;" edge="1" parent="1" source="vWO0f-1AFC-SPm581ecY-58">
          <mxGeometry relative="1" as="geometry">
            <mxPoint x="400" y="1090" as="targetPoint" />
          </mxGeometry>
        </mxCell>
        <mxCell id="vWO0f-1AFC-SPm581ecY-58" value="1. элемент&amp;nbsp;&lt;b&gt;outArray &lt;/b&gt;с индексом&lt;b&gt; outIndex&lt;/b&gt;&amp;nbsp;= элементу&lt;b&gt;&amp;nbsp;&lt;/b&gt;&lt;b&gt;array&amp;nbsp;&lt;/b&gt;с индексом&amp;nbsp;&lt;b&gt;inIndex&lt;/b&gt;&lt;b&gt;&amp;nbsp;&lt;/b&gt;&amp;nbsp;&lt;br&gt;2. &lt;b&gt;inIndex&amp;nbsp; =&amp;nbsp;&lt;/b&gt;inIndex&amp;nbsp;+ 1&lt;br&gt;3.&amp;nbsp;&lt;b&gt;outIndex&lt;/b&gt;&amp;nbsp; =&amp;nbsp;outIndex&amp;nbsp;&amp;nbsp;+ 1" style="rounded=0;whiteSpace=wrap;html=1;" vertex="1" parent="1">
          <mxGeometry x="460" y="1235" width="260" height="67" as="geometry" />
        </mxCell>
        <mxCell id="vWO0f-1AFC-SPm581ecY-69" style="edgeStyle=orthogonalEdgeStyle;rounded=0;orthogonalLoop=1;jettySize=auto;html=1;entryX=0.5;entryY=1;entryDx=0;entryDy=0;" edge="1" parent="1" source="vWO0f-1AFC-SPm581ecY-59" target="vWO0f-1AFC-SPm581ecY-55">
          <mxGeometry relative="1" as="geometry">
            <mxPoint x="400" y="1220" as="targetPoint" />
          </mxGeometry>
        </mxCell>
        <mxCell id="vWO0f-1AFC-SPm581ecY-59" value="&lt;b&gt;inIndex&amp;nbsp; =&amp;nbsp;&lt;/b&gt;inIndex&amp;nbsp;+ 1" style="rounded=0;whiteSpace=wrap;html=1;" vertex="1" parent="1">
          <mxGeometry x="771" y="1335" width="125" height="30" as="geometry" />
        </mxCell>
        <mxCell id="vWO0f-1AFC-SPm581ecY-73" value="Конец" style="rounded=1;whiteSpace=wrap;html=1;" vertex="1" parent="1">
          <mxGeometry x="367" y="1610" width="120" height="60" as="geometry" />
        </mxCell>
      </root>
    </mxGraphModel>
  </diagram>
</mxfile>
